<svg width="235" height="71" viewBox="0 0 235 71" fill="none" xmlns="http://www.w3.org/2000/svg">
<path d="M2.18362 0H8.88509L23.2292 44.5203L37.5357 0H44.2372L25.827 54.6096H20.5562L2.18362 0ZM0 0H5.87319L6.88971 33.3059V54.6096H0V0ZM40.51 0H46.3832V54.6096H39.4935V33.3059L40.51 0Z" fill="#454545"/>
<path d="M77.2355 50.4089L86.3088 14.0275H93.3868L79.9462 60.8732C79.6199 61.8734 79.1807 62.9486 78.6285 64.0988C78.1014 65.274 77.4237 66.3867 76.5955 67.4369C75.7672 68.4871 74.7758 69.3372 73.6212 69.9873C72.4667 70.6624 71.1113 71 69.5552 71C69.0783 71 68.4634 70.925 67.7104 70.775C66.9825 70.6249 66.4554 70.4999 66.1291 70.3999V64.7739C66.2797 64.7989 66.5182 64.8239 66.8445 64.8489C67.1708 64.8989 67.4092 64.9239 67.5598 64.9239C68.8649 64.9239 69.9693 64.7114 70.8729 64.2863C71.8015 63.8862 72.5922 63.1986 73.2447 62.2235C73.8973 61.2733 74.4495 59.9606 74.9013 58.2853L77.2355 50.4089ZM71.3623 14.0275L79.4568 45.533L81.1886 52.8468L76.4449 55.3973L64.0961 14.0275H71.3623Z" fill="#454545"/>
<path d="M118.479 0V54.6096H111.552V0H118.479Z" fill="#454545"/>
<path d="M176.777 0V54.6096H169.812L147.863 12.4897V54.6096H140.936V0H147.863L169.925 42.2324V0H176.777Z" fill="#454545"/>
<path d="M206.086 0V54.6096H199.158V0H206.086ZM233.645 0L214.783 25.467L203.752 38.7068L202.509 30.9805L210.604 20.4036L225.362 0H233.645ZM226.755 54.6096L210.604 27.9799L214.707 22.2414L235 54.6096H226.755Z" fill="#454545"/>
</svg>
